<svg width="100" height="100" viewBox="0 0 100 100" fill="none" xmlns="http://www.w3.org/2000/svg">
  <!-- Romantic gradient background -->
  <defs>
    <linearGradient id="loveGradient" x1="0%" y1="0%" x2="100%" y2="100%">
      <stop offset="0%" style="stop-color:#ec4899;stop-opacity:1" />
      <stop offset="50%" style="stop-color:#f43f5e;stop-opacity:1" />
      <stop offset="100%" style="stop-color:#a855f7;stop-opacity:1" />
    </linearGradient>
    <linearGradient id="heartGradient" x1="0%" y1="0%" x2="100%" y2="100%">
      <stop offset="0%" style="stop-color:#ff69b4;stop-opacity:1" />
      <stop offset="100%" style="stop-color:#ff1493;stop-opacity:1" />
    </linearGradient>
  </defs>
  
  <!-- Background circle -->
  <circle cx="50" cy="50" r="45" fill="url(#loveGradient)" />
  
  <!-- Camera lens outer ring -->
  <circle cx="50" cy="50" r="30" fill="white" opacity="0.9" />
  <circle cx="50" cy="50" r="25" fill="none" stroke="url(#loveGradient)" stroke-width="2" />
  
  <!-- Camera lens inner -->
  <circle cx="50" cy="50" r="18" fill="url(#loveGradient)" opacity="0.3" />
  <circle cx="50" cy="50" r="12" fill="none" stroke="white" stroke-width="1.5" />
  
  <!-- Heart shape in center -->
  <path d="M50 45 C45 40, 35 40, 35 50 C35 55, 50 65, 50 65 C50 65, 65 55, 65 50 C65 40, 55 40, 50 45 Z" 
        fill="url(#heartGradient)" />
  
  <!-- Small sparkles -->
  <circle cx="30" cy="30" r="1.5" fill="white" opacity="0.8" />
  <circle cx="70" cy="25" r="1" fill="white" opacity="0.6" />
  <circle cx="75" cy="70" r="1.5" fill="white" opacity="0.8" />
  <circle cx="25" cy="75" r="1" fill="white" opacity="0.6" />
</svg>
